<mxfile host="app.diagrams.net" modified="2023-03-28T13:52:08.301Z" agent="Mozilla/5.0 (Windows NT 10.0; Win64; x64; rv:109.0) Gecko/20100101 Firefox/111.0" etag="QqBmgGqHSg999N_Ic2d6" version="21.1.1" type="github" pages="3">
  <diagram id="C5RBs43oDa-KdzZeNtuy" name="Задание 1">
    <mxGraphModel dx="1434" dy="754" grid="1" gridSize="10" guides="1" tooltips="1" connect="1" arrows="1" fold="1" page="1" pageScale="1" pageWidth="827" pageHeight="1169" math="0" shadow="0">
      <root>
        <mxCell id="WIyWlLk6GJQsqaUBKTNV-0" />
        <mxCell id="WIyWlLk6GJQsqaUBKTNV-1" parent="WIyWlLk6GJQsqaUBKTNV-0" />
        <mxCell id="PY6ZFzl7MT_hS00_hgjG-19" value="" style="edgeStyle=orthogonalEdgeStyle;rounded=0;orthogonalLoop=1;jettySize=auto;html=1;" edge="1" parent="WIyWlLk6GJQsqaUBKTNV-1" source="WIyWlLk6GJQsqaUBKTNV-3" target="PY6ZFzl7MT_hS00_hgjG-2">
          <mxGeometry relative="1" as="geometry" />
        </mxCell>
        <mxCell id="WIyWlLk6GJQsqaUBKTNV-3" value="Start" style="rounded=1;whiteSpace=wrap;html=1;fontSize=12;glass=0;strokeWidth=1;shadow=0;" parent="WIyWlLk6GJQsqaUBKTNV-1" vertex="1">
          <mxGeometry x="286" y="30" width="120" height="40" as="geometry" />
        </mxCell>
        <mxCell id="WIyWlLk6GJQsqaUBKTNV-11" value="Finish" style="rounded=1;whiteSpace=wrap;html=1;fontSize=12;glass=0;strokeWidth=1;shadow=0;" parent="WIyWlLk6GJQsqaUBKTNV-1" vertex="1">
          <mxGeometry x="283" y="474.5" width="120" height="40" as="geometry" />
        </mxCell>
        <mxCell id="PY6ZFzl7MT_hS00_hgjG-0" value="&lt;div align=&quot;center&quot;&gt;Составить блок-схему нахождения максимального значения из двух чисел&lt;br&gt;&lt;/div&gt;" style="text;html=1;strokeColor=none;fillColor=none;spacing=5;spacingTop=-20;whiteSpace=wrap;overflow=hidden;rounded=0;align=center;" vertex="1" parent="WIyWlLk6GJQsqaUBKTNV-1">
          <mxGeometry x="20" y="30" width="190" height="40" as="geometry" />
        </mxCell>
        <mxCell id="PY6ZFzl7MT_hS00_hgjG-11" style="edgeStyle=orthogonalEdgeStyle;rounded=0;orthogonalLoop=1;jettySize=auto;html=1;exitX=0.5;exitY=1;exitDx=0;exitDy=0;entryX=0.5;entryY=0;entryDx=0;entryDy=0;" edge="1" parent="WIyWlLk6GJQsqaUBKTNV-1" source="PY6ZFzl7MT_hS00_hgjG-2" target="PY6ZFzl7MT_hS00_hgjG-3">
          <mxGeometry relative="1" as="geometry" />
        </mxCell>
        <mxCell id="PY6ZFzl7MT_hS00_hgjG-2" value="a,b" style="shape=parallelogram;perimeter=parallelogramPerimeter;whiteSpace=wrap;html=1;fixedSize=1;" vertex="1" parent="WIyWlLk6GJQsqaUBKTNV-1">
          <mxGeometry x="286" y="120" width="120" height="60" as="geometry" />
        </mxCell>
        <mxCell id="PY6ZFzl7MT_hS00_hgjG-12" style="edgeStyle=orthogonalEdgeStyle;rounded=0;orthogonalLoop=1;jettySize=auto;html=1;exitX=1;exitY=0.5;exitDx=0;exitDy=0;" edge="1" parent="WIyWlLk6GJQsqaUBKTNV-1" source="PY6ZFzl7MT_hS00_hgjG-3" target="PY6ZFzl7MT_hS00_hgjG-5">
          <mxGeometry relative="1" as="geometry" />
        </mxCell>
        <mxCell id="PY6ZFzl7MT_hS00_hgjG-13" style="edgeStyle=orthogonalEdgeStyle;rounded=0;orthogonalLoop=1;jettySize=auto;html=1;exitX=0;exitY=0.5;exitDx=0;exitDy=0;entryX=1;entryY=0.5;entryDx=0;entryDy=0;" edge="1" parent="WIyWlLk6GJQsqaUBKTNV-1" source="PY6ZFzl7MT_hS00_hgjG-3" target="PY6ZFzl7MT_hS00_hgjG-4">
          <mxGeometry relative="1" as="geometry" />
        </mxCell>
        <mxCell id="PY6ZFzl7MT_hS00_hgjG-3" value="&lt;div&gt;a&amp;gt;b ?&lt;/div&gt;" style="rhombus;whiteSpace=wrap;html=1;" vertex="1" parent="WIyWlLk6GJQsqaUBKTNV-1">
          <mxGeometry x="280" y="210" width="126" height="80" as="geometry" />
        </mxCell>
        <mxCell id="PY6ZFzl7MT_hS00_hgjG-14" style="edgeStyle=orthogonalEdgeStyle;rounded=0;orthogonalLoop=1;jettySize=auto;html=1;exitX=0.5;exitY=1;exitDx=0;exitDy=0;entryX=0;entryY=0.5;entryDx=0;entryDy=0;" edge="1" parent="WIyWlLk6GJQsqaUBKTNV-1" source="PY6ZFzl7MT_hS00_hgjG-4" target="PY6ZFzl7MT_hS00_hgjG-6">
          <mxGeometry relative="1" as="geometry" />
        </mxCell>
        <mxCell id="PY6ZFzl7MT_hS00_hgjG-4" value="max=a" style="rounded=0;whiteSpace=wrap;html=1;" vertex="1" parent="WIyWlLk6GJQsqaUBKTNV-1">
          <mxGeometry x="120" y="220" width="120" height="60" as="geometry" />
        </mxCell>
        <mxCell id="PY6ZFzl7MT_hS00_hgjG-15" style="edgeStyle=orthogonalEdgeStyle;rounded=0;orthogonalLoop=1;jettySize=auto;html=1;exitX=0.5;exitY=1;exitDx=0;exitDy=0;entryX=1;entryY=0.5;entryDx=0;entryDy=0;" edge="1" parent="WIyWlLk6GJQsqaUBKTNV-1" source="PY6ZFzl7MT_hS00_hgjG-5" target="PY6ZFzl7MT_hS00_hgjG-6">
          <mxGeometry relative="1" as="geometry" />
        </mxCell>
        <mxCell id="PY6ZFzl7MT_hS00_hgjG-5" value="max=b" style="rounded=0;whiteSpace=wrap;html=1;" vertex="1" parent="WIyWlLk6GJQsqaUBKTNV-1">
          <mxGeometry x="460" y="220" width="120" height="60" as="geometry" />
        </mxCell>
        <mxCell id="PY6ZFzl7MT_hS00_hgjG-17" value="" style="edgeStyle=orthogonalEdgeStyle;rounded=0;orthogonalLoop=1;jettySize=auto;html=1;" edge="1" parent="WIyWlLk6GJQsqaUBKTNV-1" source="PY6ZFzl7MT_hS00_hgjG-6" target="WIyWlLk6GJQsqaUBKTNV-11">
          <mxGeometry relative="1" as="geometry" />
        </mxCell>
        <mxCell id="PY6ZFzl7MT_hS00_hgjG-6" value="max" style="shape=document;whiteSpace=wrap;html=1;boundedLbl=1;" vertex="1" parent="WIyWlLk6GJQsqaUBKTNV-1">
          <mxGeometry x="283" y="340" width="120" height="80" as="geometry" />
        </mxCell>
        <mxCell id="RCr6be-mb4rN3sDtStKT-0" value="&lt;div&gt;Yes&lt;/div&gt;" style="text;html=1;strokeColor=none;fillColor=none;align=center;verticalAlign=middle;whiteSpace=wrap;rounded=0;" vertex="1" parent="WIyWlLk6GJQsqaUBKTNV-1">
          <mxGeometry x="243" y="230" width="40" height="20" as="geometry" />
        </mxCell>
        <mxCell id="RCr6be-mb4rN3sDtStKT-1" value="no" style="text;html=1;strokeColor=none;fillColor=none;align=center;verticalAlign=middle;whiteSpace=wrap;rounded=0;" vertex="1" parent="WIyWlLk6GJQsqaUBKTNV-1">
          <mxGeometry x="414" y="230" width="30" height="20" as="geometry" />
        </mxCell>
      </root>
    </mxGraphModel>
  </diagram>
  <diagram id="WOEMEZxp93JaEzbvOUut" name="Задание 2">
    <mxGraphModel dx="1912" dy="1005" grid="1" gridSize="10" guides="1" tooltips="1" connect="1" arrows="1" fold="1" page="1" pageScale="1" pageWidth="827" pageHeight="1169" math="0" shadow="0">
      <root>
        <mxCell id="0" />
        <mxCell id="1" parent="0" />
        <mxCell id="R3waQBVX-SKkLWuHx5Jw-1" value="&lt;div&gt;Составить блок-схему нахождения минимального из 4х чисел&lt;/div&gt;&lt;div&gt;&lt;br&gt;&lt;/div&gt;" style="text;html=1;align=center;verticalAlign=middle;resizable=0;points=[];autosize=1;strokeColor=none;fillColor=none;" vertex="1" parent="1">
          <mxGeometry x="10" y="20" width="380" height="40" as="geometry" />
        </mxCell>
        <mxCell id="gvl7D3W0u_UJ0QlJcalI-16" style="edgeStyle=orthogonalEdgeStyle;rounded=0;orthogonalLoop=1;jettySize=auto;html=1;entryX=0.5;entryY=0;entryDx=0;entryDy=0;" edge="1" parent="1" source="R3waQBVX-SKkLWuHx5Jw-2" target="R3waQBVX-SKkLWuHx5Jw-3">
          <mxGeometry relative="1" as="geometry" />
        </mxCell>
        <mxCell id="R3waQBVX-SKkLWuHx5Jw-2" value="Start" style="rounded=1;whiteSpace=wrap;html=1;" vertex="1" parent="1">
          <mxGeometry x="90" y="70" width="120" height="60" as="geometry" />
        </mxCell>
        <mxCell id="gvl7D3W0u_UJ0QlJcalI-17" value="" style="edgeStyle=orthogonalEdgeStyle;rounded=0;orthogonalLoop=1;jettySize=auto;html=1;" edge="1" parent="1" source="R3waQBVX-SKkLWuHx5Jw-3" target="gvl7D3W0u_UJ0QlJcalI-1">
          <mxGeometry relative="1" as="geometry" />
        </mxCell>
        <mxCell id="R3waQBVX-SKkLWuHx5Jw-3" value="a,b,c,d" style="shape=parallelogram;perimeter=parallelogramPerimeter;whiteSpace=wrap;html=1;fixedSize=1;" vertex="1" parent="1">
          <mxGeometry x="90" y="170" width="120" height="60" as="geometry" />
        </mxCell>
        <mxCell id="knaLwi_JC-dU1qYIT4HB-4" style="edgeStyle=orthogonalEdgeStyle;rounded=0;orthogonalLoop=1;jettySize=auto;html=1;exitX=1;exitY=0.5;exitDx=0;exitDy=0;entryX=0.5;entryY=0;entryDx=0;entryDy=0;" edge="1" parent="1" source="R3waQBVX-SKkLWuHx5Jw-5" target="Aw_1n5yS92RyqKppq87D-1">
          <mxGeometry relative="1" as="geometry" />
        </mxCell>
        <mxCell id="gvl7D3W0u_UJ0QlJcalI-13" style="edgeStyle=orthogonalEdgeStyle;rounded=0;orthogonalLoop=1;jettySize=auto;html=1;entryX=0.5;entryY=0;entryDx=0;entryDy=0;" edge="1" parent="1" source="R3waQBVX-SKkLWuHx5Jw-5" target="gvl7D3W0u_UJ0QlJcalI-2">
          <mxGeometry relative="1" as="geometry" />
        </mxCell>
        <mxCell id="R3waQBVX-SKkLWuHx5Jw-5" value="min&amp;lt;b" style="rhombus;whiteSpace=wrap;html=1;" vertex="1" parent="1">
          <mxGeometry x="110" y="390" width="80" height="80" as="geometry" />
        </mxCell>
        <mxCell id="knaLwi_JC-dU1qYIT4HB-6" style="edgeStyle=orthogonalEdgeStyle;rounded=0;orthogonalLoop=1;jettySize=auto;html=1;exitX=1;exitY=0.5;exitDx=0;exitDy=0;entryX=0.5;entryY=0;entryDx=0;entryDy=0;" edge="1" parent="1" source="Aw_1n5yS92RyqKppq87D-1" target="knaLwi_JC-dU1qYIT4HB-2">
          <mxGeometry relative="1" as="geometry" />
        </mxCell>
        <mxCell id="gvl7D3W0u_UJ0QlJcalI-11" style="edgeStyle=orthogonalEdgeStyle;rounded=0;orthogonalLoop=1;jettySize=auto;html=1;exitX=0.5;exitY=1;exitDx=0;exitDy=0;entryX=0.5;entryY=0;entryDx=0;entryDy=0;" edge="1" parent="1" source="Aw_1n5yS92RyqKppq87D-1" target="gvl7D3W0u_UJ0QlJcalI-3">
          <mxGeometry relative="1" as="geometry" />
        </mxCell>
        <mxCell id="Aw_1n5yS92RyqKppq87D-1" value="min&amp;lt;c" style="rhombus;whiteSpace=wrap;html=1;" vertex="1" parent="1">
          <mxGeometry x="290" y="510" width="80" height="80" as="geometry" />
        </mxCell>
        <mxCell id="gvl7D3W0u_UJ0QlJcalI-9" style="edgeStyle=orthogonalEdgeStyle;rounded=0;orthogonalLoop=1;jettySize=auto;html=1;entryX=0.5;entryY=0;entryDx=0;entryDy=0;" edge="1" parent="1" source="knaLwi_JC-dU1qYIT4HB-2" target="gvl7D3W0u_UJ0QlJcalI-4">
          <mxGeometry relative="1" as="geometry" />
        </mxCell>
        <mxCell id="gvl7D3W0u_UJ0QlJcalI-10" style="edgeStyle=orthogonalEdgeStyle;rounded=0;orthogonalLoop=1;jettySize=auto;html=1;entryX=0.442;entryY=0;entryDx=0;entryDy=0;entryPerimeter=0;" edge="1" parent="1" source="knaLwi_JC-dU1qYIT4HB-2" target="gvl7D3W0u_UJ0QlJcalI-5">
          <mxGeometry relative="1" as="geometry" />
        </mxCell>
        <mxCell id="knaLwi_JC-dU1qYIT4HB-2" value="min&amp;lt;d" style="rhombus;whiteSpace=wrap;html=1;" vertex="1" parent="1">
          <mxGeometry x="470" y="630" width="80" height="80" as="geometry" />
        </mxCell>
        <mxCell id="gvl7D3W0u_UJ0QlJcalI-18" value="" style="edgeStyle=orthogonalEdgeStyle;rounded=0;orthogonalLoop=1;jettySize=auto;html=1;" edge="1" parent="1" source="gvl7D3W0u_UJ0QlJcalI-1" target="R3waQBVX-SKkLWuHx5Jw-5">
          <mxGeometry relative="1" as="geometry" />
        </mxCell>
        <mxCell id="gvl7D3W0u_UJ0QlJcalI-1" value="min=a" style="rounded=0;whiteSpace=wrap;html=1;" vertex="1" parent="1">
          <mxGeometry x="90" y="280" width="120" height="60" as="geometry" />
        </mxCell>
        <mxCell id="gvl7D3W0u_UJ0QlJcalI-14" style="edgeStyle=orthogonalEdgeStyle;rounded=0;orthogonalLoop=1;jettySize=auto;html=1;" edge="1" parent="1" source="gvl7D3W0u_UJ0QlJcalI-2" target="Aw_1n5yS92RyqKppq87D-1">
          <mxGeometry relative="1" as="geometry" />
        </mxCell>
        <mxCell id="gvl7D3W0u_UJ0QlJcalI-2" value="min=b" style="rounded=0;whiteSpace=wrap;html=1;" vertex="1" parent="1">
          <mxGeometry x="90" y="520" width="120" height="60" as="geometry" />
        </mxCell>
        <mxCell id="gvl7D3W0u_UJ0QlJcalI-12" style="edgeStyle=orthogonalEdgeStyle;rounded=0;orthogonalLoop=1;jettySize=auto;html=1;" edge="1" parent="1" source="gvl7D3W0u_UJ0QlJcalI-3" target="knaLwi_JC-dU1qYIT4HB-2">
          <mxGeometry relative="1" as="geometry" />
        </mxCell>
        <mxCell id="gvl7D3W0u_UJ0QlJcalI-3" value="min=c" style="rounded=0;whiteSpace=wrap;html=1;" vertex="1" parent="1">
          <mxGeometry x="270" y="640" width="120" height="60" as="geometry" />
        </mxCell>
        <mxCell id="gvl7D3W0u_UJ0QlJcalI-15" style="edgeStyle=orthogonalEdgeStyle;rounded=0;orthogonalLoop=1;jettySize=auto;html=1;entryX=0;entryY=0.5;entryDx=0;entryDy=0;" edge="1" parent="1" source="gvl7D3W0u_UJ0QlJcalI-4" target="gvl7D3W0u_UJ0QlJcalI-5">
          <mxGeometry relative="1" as="geometry">
            <Array as="points">
              <mxPoint x="510" y="920" />
            </Array>
          </mxGeometry>
        </mxCell>
        <mxCell id="gvl7D3W0u_UJ0QlJcalI-4" value="&lt;div&gt;min=d&lt;/div&gt;" style="rounded=0;whiteSpace=wrap;html=1;" vertex="1" parent="1">
          <mxGeometry x="450" y="760" width="120" height="60" as="geometry" />
        </mxCell>
        <mxCell id="gvl7D3W0u_UJ0QlJcalI-7" value="" style="edgeStyle=orthogonalEdgeStyle;rounded=0;orthogonalLoop=1;jettySize=auto;html=1;" edge="1" parent="1" source="gvl7D3W0u_UJ0QlJcalI-5" target="gvl7D3W0u_UJ0QlJcalI-6">
          <mxGeometry relative="1" as="geometry" />
        </mxCell>
        <mxCell id="gvl7D3W0u_UJ0QlJcalI-5" value="min" style="shape=document;whiteSpace=wrap;html=1;boundedLbl=1;" vertex="1" parent="1">
          <mxGeometry x="597" y="880" width="120" height="80" as="geometry" />
        </mxCell>
        <mxCell id="gvl7D3W0u_UJ0QlJcalI-6" value="finish" style="rounded=1;whiteSpace=wrap;html=1;" vertex="1" parent="1">
          <mxGeometry x="597" y="1020" width="120" height="60" as="geometry" />
        </mxCell>
        <mxCell id="gvl7D3W0u_UJ0QlJcalI-19" value="no" style="text;html=1;strokeColor=none;fillColor=none;align=center;verticalAlign=middle;whiteSpace=wrap;rounded=0;" vertex="1" parent="1">
          <mxGeometry x="190" y="410" width="30" height="20" as="geometry" />
        </mxCell>
        <mxCell id="gvl7D3W0u_UJ0QlJcalI-20" value="no" style="text;html=1;strokeColor=none;fillColor=none;align=center;verticalAlign=middle;whiteSpace=wrap;rounded=0;" vertex="1" parent="1">
          <mxGeometry x="370" y="530" width="30" height="20" as="geometry" />
        </mxCell>
        <mxCell id="gvl7D3W0u_UJ0QlJcalI-22" value="no" style="text;html=1;strokeColor=none;fillColor=none;align=center;verticalAlign=middle;whiteSpace=wrap;rounded=0;" vertex="1" parent="1">
          <mxGeometry x="550" y="650" width="30" height="20" as="geometry" />
        </mxCell>
        <mxCell id="gvl7D3W0u_UJ0QlJcalI-24" value="yes" style="text;html=1;strokeColor=none;fillColor=none;align=center;verticalAlign=middle;whiteSpace=wrap;rounded=0;" vertex="1" parent="1">
          <mxGeometry x="120" y="470" width="30" height="20" as="geometry" />
        </mxCell>
        <mxCell id="gvl7D3W0u_UJ0QlJcalI-25" value="yes" style="text;html=1;strokeColor=none;fillColor=none;align=center;verticalAlign=middle;whiteSpace=wrap;rounded=0;" vertex="1" parent="1">
          <mxGeometry x="300" y="590" width="30" height="20" as="geometry" />
        </mxCell>
        <mxCell id="gvl7D3W0u_UJ0QlJcalI-26" value="yes" style="text;html=1;strokeColor=none;fillColor=none;align=center;verticalAlign=middle;whiteSpace=wrap;rounded=0;" vertex="1" parent="1">
          <mxGeometry x="480" y="710" width="30" height="20" as="geometry" />
        </mxCell>
      </root>
    </mxGraphModel>
  </diagram>
  <diagram id="5iY5bMiOQWnxWNa-T3jn" name="Задание 5">
    <mxGraphModel dx="1434" dy="754" grid="1" gridSize="10" guides="1" tooltips="1" connect="1" arrows="1" fold="1" page="1" pageScale="1" pageWidth="827" pageHeight="1169" math="0" shadow="0">
      <root>
        <mxCell id="0" />
        <mxCell id="1" parent="0" />
        <mxCell id="xnSd78E77Bhv3qSrk-Sr-4" value="" style="edgeStyle=orthogonalEdgeStyle;rounded=0;orthogonalLoop=1;jettySize=auto;html=1;" edge="1" parent="1" source="xnSd78E77Bhv3qSrk-Sr-1" target="xnSd78E77Bhv3qSrk-Sr-2">
          <mxGeometry relative="1" as="geometry" />
        </mxCell>
        <mxCell id="xnSd78E77Bhv3qSrk-Sr-1" value="Start" style="rounded=1;whiteSpace=wrap;html=1;" vertex="1" parent="1">
          <mxGeometry x="260" y="60" width="120" height="60" as="geometry" />
        </mxCell>
        <mxCell id="xnSd78E77Bhv3qSrk-Sr-5" value="" style="edgeStyle=orthogonalEdgeStyle;rounded=0;orthogonalLoop=1;jettySize=auto;html=1;" edge="1" parent="1" source="xnSd78E77Bhv3qSrk-Sr-2" target="xnSd78E77Bhv3qSrk-Sr-3">
          <mxGeometry relative="1" as="geometry" />
        </mxCell>
        <mxCell id="xnSd78E77Bhv3qSrk-Sr-2" value="&lt;div&gt;а=1&lt;/div&gt;&lt;div&gt;b=55&lt;br&gt;&lt;/div&gt;n=0" style="shape=parallelogram;perimeter=parallelogramPerimeter;whiteSpace=wrap;html=1;fixedSize=1;" vertex="1" parent="1">
          <mxGeometry x="260" y="160" width="120" height="60" as="geometry" />
        </mxCell>
        <mxCell id="xnSd78E77Bhv3qSrk-Sr-7" value="" style="edgeStyle=orthogonalEdgeStyle;rounded=0;orthogonalLoop=1;jettySize=auto;html=1;" edge="1" parent="1" source="xnSd78E77Bhv3qSrk-Sr-3" target="xnSd78E77Bhv3qSrk-Sr-6">
          <mxGeometry relative="1" as="geometry" />
        </mxCell>
        <mxCell id="xnSd78E77Bhv3qSrk-Sr-14" value="" style="edgeStyle=orthogonalEdgeStyle;rounded=0;orthogonalLoop=1;jettySize=auto;html=1;" edge="1" parent="1" source="xnSd78E77Bhv3qSrk-Sr-3" target="xnSd78E77Bhv3qSrk-Sr-13">
          <mxGeometry relative="1" as="geometry" />
        </mxCell>
        <mxCell id="xnSd78E77Bhv3qSrk-Sr-3" value="a&amp;gt;b?" style="rhombus;whiteSpace=wrap;html=1;" vertex="1" parent="1">
          <mxGeometry x="280" y="260" width="80" height="80" as="geometry" />
        </mxCell>
        <mxCell id="xnSd78E77Bhv3qSrk-Sr-9" value="" style="edgeStyle=orthogonalEdgeStyle;rounded=0;orthogonalLoop=1;jettySize=auto;html=1;" edge="1" parent="1" source="xnSd78E77Bhv3qSrk-Sr-6" target="xnSd78E77Bhv3qSrk-Sr-8">
          <mxGeometry relative="1" as="geometry" />
        </mxCell>
        <mxCell id="xnSd78E77Bhv3qSrk-Sr-21" value="" style="edgeStyle=orthogonalEdgeStyle;rounded=0;orthogonalLoop=1;jettySize=auto;html=1;" edge="1" parent="1" source="xnSd78E77Bhv3qSrk-Sr-6" target="xnSd78E77Bhv3qSrk-Sr-20">
          <mxGeometry relative="1" as="geometry" />
        </mxCell>
        <mxCell id="xnSd78E77Bhv3qSrk-Sr-6" value="а%2==0" style="rhombus;whiteSpace=wrap;html=1;" vertex="1" parent="1">
          <mxGeometry x="280" y="380" width="80" height="80" as="geometry" />
        </mxCell>
        <mxCell id="xnSd78E77Bhv3qSrk-Sr-8" value="&lt;div&gt;n=n+a&lt;br&gt;&lt;/div&gt;&lt;div&gt;a=a+1&lt;/div&gt;" style="whiteSpace=wrap;html=1;" vertex="1" parent="1">
          <mxGeometry x="260" y="510" width="120" height="60" as="geometry" />
        </mxCell>
        <mxCell id="xnSd78E77Bhv3qSrk-Sr-10" value="" style="endArrow=classic;html=1;rounded=0;" edge="1" parent="1" target="xnSd78E77Bhv3qSrk-Sr-3">
          <mxGeometry width="50" height="50" relative="1" as="geometry">
            <mxPoint x="260" y="540" as="sourcePoint" />
            <mxPoint x="180" y="110" as="targetPoint" />
            <Array as="points">
              <mxPoint x="220" y="540" />
              <mxPoint x="220" y="380" />
              <mxPoint x="220" y="300" />
              <mxPoint x="230" y="300" />
            </Array>
          </mxGeometry>
        </mxCell>
        <mxCell id="xnSd78E77Bhv3qSrk-Sr-16" value="" style="edgeStyle=orthogonalEdgeStyle;rounded=0;orthogonalLoop=1;jettySize=auto;html=1;" edge="1" parent="1" source="xnSd78E77Bhv3qSrk-Sr-13" target="xnSd78E77Bhv3qSrk-Sr-15">
          <mxGeometry relative="1" as="geometry" />
        </mxCell>
        <mxCell id="xnSd78E77Bhv3qSrk-Sr-13" value="n" style="shape=document;whiteSpace=wrap;html=1;boundedLbl=1;" vertex="1" parent="1">
          <mxGeometry x="420" y="260" width="120" height="80" as="geometry" />
        </mxCell>
        <mxCell id="xnSd78E77Bhv3qSrk-Sr-15" value="finish" style="rounded=1;whiteSpace=wrap;html=1;" vertex="1" parent="1">
          <mxGeometry x="620" y="270" width="120" height="60" as="geometry" />
        </mxCell>
        <mxCell id="xnSd78E77Bhv3qSrk-Sr-17" value="Сумма всех четных чисел от 1 до 15" style="text;html=1;strokeColor=none;fillColor=none;align=center;verticalAlign=middle;whiteSpace=wrap;rounded=0;" vertex="1" parent="1">
          <mxGeometry x="40" y="10" width="150" height="30" as="geometry" />
        </mxCell>
        <mxCell id="xnSd78E77Bhv3qSrk-Sr-20" value="а=а+1" style="rounded=0;whiteSpace=wrap;html=1;" vertex="1" parent="1">
          <mxGeometry x="50" y="390" width="120" height="60" as="geometry" />
        </mxCell>
        <mxCell id="xnSd78E77Bhv3qSrk-Sr-22" value="" style="endArrow=classic;html=1;rounded=0;entryX=0;entryY=0.5;entryDx=0;entryDy=0;" edge="1" parent="1" target="xnSd78E77Bhv3qSrk-Sr-3">
          <mxGeometry width="50" height="50" relative="1" as="geometry">
            <mxPoint x="100" y="390" as="sourcePoint" />
            <mxPoint x="150" y="340" as="targetPoint" />
            <Array as="points">
              <mxPoint x="100" y="300" />
            </Array>
          </mxGeometry>
        </mxCell>
        <mxCell id="CMDD8SLNTDdd7_WBjQ3T-1" value="yes" style="text;html=1;strokeColor=none;fillColor=none;align=center;verticalAlign=middle;whiteSpace=wrap;rounded=0;" vertex="1" parent="1">
          <mxGeometry x="380" y="280" width="30" height="20" as="geometry" />
        </mxCell>
        <mxCell id="CMDD8SLNTDdd7_WBjQ3T-2" value="yes" style="text;html=1;strokeColor=none;fillColor=none;align=center;verticalAlign=middle;whiteSpace=wrap;rounded=0;" vertex="1" parent="1">
          <mxGeometry x="320" y="480" width="30" height="20" as="geometry" />
        </mxCell>
        <mxCell id="370d1J7U5wbi8HKzTbNq-1" value="no" style="text;html=1;strokeColor=none;fillColor=none;align=center;verticalAlign=middle;whiteSpace=wrap;rounded=0;" vertex="1" parent="1">
          <mxGeometry x="320" y="350" width="30" height="20" as="geometry" />
        </mxCell>
        <mxCell id="370d1J7U5wbi8HKzTbNq-2" value="no" style="text;html=1;strokeColor=none;fillColor=none;align=center;verticalAlign=middle;whiteSpace=wrap;rounded=0;" vertex="1" parent="1">
          <mxGeometry x="250" y="400" width="30" height="20" as="geometry" />
        </mxCell>
      </root>
    </mxGraphModel>
  </diagram>
</mxfile>
